# xmcd CD database file
#
# Track frame offsets:
#	150
#	17708
#	51576
#	72444
#
# Disc length: 1153 seconds
#
# Revision: 0
# Processed by: cddbd v1.5.2PL0 Copyright (c) Steve Scherf et al.
# Submitted via: CDex 1.70beta2
#
DISCID=36047f04
DTITLE=Danny Everhart Band - Riding High in Mississippi
DYEAR=2008
DGENRE=Country
TTITLE0=Riding High in Mississippi
TTITLE1=FM95 Radio Interview/Riding High(Live Acoustic)
TTITLE2=She Doesn't Love Me Like That(Live)
TTITLE3=Through the Pain
EXTD=YEAR: 2008
EXTT0=
EXTT1=
EXTT2=
EXTT3=
PLAYORDER=
